<mxfile host="app.diagrams.net" modified="2024-01-12T15:14:07.813Z" agent="Mozilla/5.0 (Windows NT 10.0; Win64; x64; rv:121.0) Gecko/20100101 Firefox/121.0" etag="kgTFFpLogMMD9eFVnJz1" version="22.1.18" type="device">
  <diagram name="Page-1" id="q9svZZOjVVwIT-ZRIss9">
    <mxGraphModel dx="1434" dy="1599" grid="1" gridSize="10" guides="1" tooltips="1" connect="1" arrows="1" fold="1" page="1" pageScale="1" pageWidth="1169" pageHeight="827" math="0" shadow="0">
      <root>
        <mxCell id="0" />
        <mxCell id="1" parent="0" />
        <mxCell id="zviwWuJC1m9LHng3V5oT-1" value="" style="rounded=0;whiteSpace=wrap;html=1;" parent="1" vertex="1">
          <mxGeometry x="280" y="-50" width="850" height="1070" as="geometry" />
        </mxCell>
        <mxCell id="zviwWuJC1m9LHng3V5oT-2" value="author" style="shape=umlActor;verticalLabelPosition=bottom;verticalAlign=top;html=1;outlineConnect=0;" parent="1" vertex="1">
          <mxGeometry x="130" y="240" width="55" height="110" as="geometry" />
        </mxCell>
        <mxCell id="zviwWuJC1m9LHng3V5oT-3" value="gestion de wikies" style="ellipse;whiteSpace=wrap;html=1;" parent="1" vertex="1">
          <mxGeometry x="320" y="185" width="120" height="80" as="geometry" />
        </mxCell>
        <mxCell id="zviwWuJC1m9LHng3V5oT-4" value="" style="endArrow=none;html=1;rounded=0;exitX=0.5;exitY=0.5;exitDx=0;exitDy=0;exitPerimeter=0;entryX=0;entryY=0.5;entryDx=0;entryDy=0;" parent="1" source="zviwWuJC1m9LHng3V5oT-2" target="zviwWuJC1m9LHng3V5oT-3" edge="1">
          <mxGeometry width="50" height="50" relative="1" as="geometry">
            <mxPoint x="185" y="300" as="sourcePoint" />
            <mxPoint x="720" y="290" as="targetPoint" />
          </mxGeometry>
        </mxCell>
        <mxCell id="zviwWuJC1m9LHng3V5oT-5" value="recherche par tag" style="ellipse;whiteSpace=wrap;html=1;" parent="1" vertex="1">
          <mxGeometry x="320" y="280" width="120" height="80" as="geometry" />
        </mxCell>
        <mxCell id="zviwWuJC1m9LHng3V5oT-6" value="" style="endArrow=none;html=1;rounded=0;exitX=0.5;exitY=0.5;exitDx=0;exitDy=0;exitPerimeter=0;entryX=0;entryY=0.5;entryDx=0;entryDy=0;" parent="1" source="zviwWuJC1m9LHng3V5oT-2" target="zviwWuJC1m9LHng3V5oT-5" edge="1">
          <mxGeometry width="50" height="50" relative="1" as="geometry">
            <mxPoint x="168" y="305" as="sourcePoint" />
            <mxPoint x="730" y="300" as="targetPoint" />
          </mxGeometry>
        </mxCell>
        <mxCell id="zviwWuJC1m9LHng3V5oT-7" value="recherche par categrie" style="ellipse;whiteSpace=wrap;html=1;" parent="1" vertex="1">
          <mxGeometry x="312" y="374" width="120" height="80" as="geometry" />
        </mxCell>
        <mxCell id="zviwWuJC1m9LHng3V5oT-8" value="" style="endArrow=none;html=1;rounded=0;exitX=0.5;exitY=0.5;exitDx=0;exitDy=0;exitPerimeter=0;entryX=0;entryY=0.5;entryDx=0;entryDy=0;" parent="1" source="zviwWuJC1m9LHng3V5oT-2" target="zviwWuJC1m9LHng3V5oT-7" edge="1">
          <mxGeometry width="50" height="50" relative="1" as="geometry">
            <mxPoint x="150" y="389" as="sourcePoint" />
            <mxPoint x="722" y="394" as="targetPoint" />
          </mxGeometry>
        </mxCell>
        <mxCell id="zviwWuJC1m9LHng3V5oT-9" value="voir les dÃ©tails d&#39;une wiki " style="ellipse;whiteSpace=wrap;html=1;" parent="1" vertex="1">
          <mxGeometry x="312" y="470" width="120" height="80" as="geometry" />
        </mxCell>
        <mxCell id="zviwWuJC1m9LHng3V5oT-10" value="" style="endArrow=none;html=1;rounded=0;exitX=0.5;exitY=0.5;exitDx=0;exitDy=0;exitPerimeter=0;entryX=0;entryY=0.5;entryDx=0;entryDy=0;" parent="1" source="zviwWuJC1m9LHng3V5oT-2" target="zviwWuJC1m9LHng3V5oT-9" edge="1">
          <mxGeometry width="50" height="50" relative="1" as="geometry">
            <mxPoint x="168" y="305" as="sourcePoint" />
            <mxPoint x="322" y="424" as="targetPoint" />
          </mxGeometry>
        </mxCell>
        <mxCell id="zviwWuJC1m9LHng3V5oT-11" value="ajouter une nouvelle wiki " style="ellipse;whiteSpace=wrap;html=1;" parent="1" vertex="1">
          <mxGeometry x="585" y="80" width="120" height="80" as="geometry" />
        </mxCell>
        <mxCell id="zviwWuJC1m9LHng3V5oT-12" value="modifier une wiki" style="ellipse;whiteSpace=wrap;html=1;" parent="1" vertex="1">
          <mxGeometry x="585" y="175" width="120" height="80" as="geometry" />
        </mxCell>
        <mxCell id="zviwWuJC1m9LHng3V5oT-13" value="supprimer une wiki" style="ellipse;whiteSpace=wrap;html=1;" parent="1" vertex="1">
          <mxGeometry x="585" y="260" width="120" height="80" as="geometry" />
        </mxCell>
        <mxCell id="zviwWuJC1m9LHng3V5oT-14" value="" style="endArrow=classic;html=1;rounded=0;exitX=1;exitY=0.5;exitDx=0;exitDy=0;entryX=0;entryY=0.5;entryDx=0;entryDy=0;dashed=1;" parent="1" source="zviwWuJC1m9LHng3V5oT-3" target="zviwWuJC1m9LHng3V5oT-11" edge="1">
          <mxGeometry width="50" height="50" relative="1" as="geometry">
            <mxPoint x="670" y="440" as="sourcePoint" />
            <mxPoint x="720" y="390" as="targetPoint" />
          </mxGeometry>
        </mxCell>
        <mxCell id="zviwWuJC1m9LHng3V5oT-18" value="&amp;lt;&amp;lt;extend&amp;gt;&amp;gt;" style="edgeLabel;html=1;align=center;verticalAlign=middle;resizable=0;points=[];" parent="zviwWuJC1m9LHng3V5oT-14" vertex="1" connectable="0">
          <mxGeometry x="0.1246" y="-1" relative="1" as="geometry">
            <mxPoint as="offset" />
          </mxGeometry>
        </mxCell>
        <mxCell id="zviwWuJC1m9LHng3V5oT-15" value="" style="endArrow=classic;html=1;rounded=0;exitX=1;exitY=0.5;exitDx=0;exitDy=0;entryX=0;entryY=0.5;entryDx=0;entryDy=0;dashed=1;" parent="1" source="zviwWuJC1m9LHng3V5oT-3" target="zviwWuJC1m9LHng3V5oT-12" edge="1">
          <mxGeometry width="50" height="50" relative="1" as="geometry">
            <mxPoint x="450" y="235" as="sourcePoint" />
            <mxPoint x="595" y="130" as="targetPoint" />
          </mxGeometry>
        </mxCell>
        <mxCell id="zviwWuJC1m9LHng3V5oT-20" value="&amp;lt;&amp;lt;extend&amp;gt;&amp;gt;" style="edgeLabel;html=1;align=center;verticalAlign=middle;resizable=0;points=[];" parent="zviwWuJC1m9LHng3V5oT-15" vertex="1" connectable="0">
          <mxGeometry x="0.157" y="1" relative="1" as="geometry">
            <mxPoint as="offset" />
          </mxGeometry>
        </mxCell>
        <mxCell id="zviwWuJC1m9LHng3V5oT-16" value="" style="endArrow=classic;html=1;rounded=0;exitX=1;exitY=0.5;exitDx=0;exitDy=0;entryX=0;entryY=0.5;entryDx=0;entryDy=0;dashed=1;" parent="1" source="zviwWuJC1m9LHng3V5oT-3" target="zviwWuJC1m9LHng3V5oT-13" edge="1">
          <mxGeometry width="50" height="50" relative="1" as="geometry">
            <mxPoint x="450" y="235" as="sourcePoint" />
            <mxPoint x="591" y="226" as="targetPoint" />
          </mxGeometry>
        </mxCell>
        <mxCell id="zviwWuJC1m9LHng3V5oT-21" value="&amp;lt;&amp;lt;extend&amp;gt;&amp;gt;" style="edgeLabel;html=1;align=center;verticalAlign=middle;resizable=0;points=[];" parent="zviwWuJC1m9LHng3V5oT-16" vertex="1" connectable="0">
          <mxGeometry x="0.2762" y="-3" relative="1" as="geometry">
            <mxPoint as="offset" />
          </mxGeometry>
        </mxCell>
        <mxCell id="zviwWuJC1m9LHng3V5oT-22" value="Admin" style="shape=umlActor;verticalLabelPosition=bottom;verticalAlign=top;html=1;outlineConnect=0;" parent="1" vertex="1">
          <mxGeometry x="130" y="650" width="55" height="110" as="geometry" />
        </mxCell>
        <mxCell id="zviwWuJC1m9LHng3V5oT-25" value="Authentification" style="ellipse;whiteSpace=wrap;html=1;" parent="1" vertex="1">
          <mxGeometry x="760" y="454" width="120" height="80" as="geometry" />
        </mxCell>
        <mxCell id="zviwWuJC1m9LHng3V5oT-28" value="" style="endArrow=classic;html=1;rounded=0;exitX=1;exitY=1;exitDx=0;exitDy=0;entryX=0;entryY=0;entryDx=0;entryDy=0;dashed=1;" parent="1" source="zviwWuJC1m9LHng3V5oT-3" target="zviwWuJC1m9LHng3V5oT-25" edge="1">
          <mxGeometry width="50" height="50" relative="1" as="geometry">
            <mxPoint x="715" y="225" as="sourcePoint" />
            <mxPoint x="830" y="225" as="targetPoint" />
          </mxGeometry>
        </mxCell>
        <mxCell id="zviwWuJC1m9LHng3V5oT-29" value="&amp;lt;&amp;lt;include&amp;gt;&amp;gt;" style="edgeLabel;html=1;align=center;verticalAlign=middle;resizable=0;points=[];" parent="zviwWuJC1m9LHng3V5oT-28" vertex="1" connectable="0">
          <mxGeometry x="0.1246" y="-1" relative="1" as="geometry">
            <mxPoint as="offset" />
          </mxGeometry>
        </mxCell>
        <mxCell id="zviwWuJC1m9LHng3V5oT-30" value="Archiver la wiki" style="ellipse;whiteSpace=wrap;html=1;" parent="1" vertex="1">
          <mxGeometry x="420" y="600" width="120" height="80" as="geometry" />
        </mxCell>
        <mxCell id="zviwWuJC1m9LHng3V5oT-31" value="" style="endArrow=none;html=1;rounded=0;exitX=0.5;exitY=0.5;exitDx=0;exitDy=0;exitPerimeter=0;entryX=0;entryY=0.5;entryDx=0;entryDy=0;" parent="1" source="zviwWuJC1m9LHng3V5oT-22" target="zviwWuJC1m9LHng3V5oT-30" edge="1">
          <mxGeometry width="50" height="50" relative="1" as="geometry">
            <mxPoint x="260" y="720" as="sourcePoint" />
            <mxPoint x="822" y="715" as="targetPoint" />
          </mxGeometry>
        </mxCell>
        <mxCell id="zviwWuJC1m9LHng3V5oT-32" value="gestion de status d&#39;utilisateur" style="ellipse;whiteSpace=wrap;html=1;" parent="1" vertex="1">
          <mxGeometry x="430" y="690" width="120" height="80" as="geometry" />
        </mxCell>
        <mxCell id="zviwWuJC1m9LHng3V5oT-33" value="" style="endArrow=none;html=1;rounded=0;exitX=0.5;exitY=0.5;exitDx=0;exitDy=0;exitPerimeter=0;entryX=0;entryY=0.5;entryDx=0;entryDy=0;" parent="1" source="zviwWuJC1m9LHng3V5oT-22" target="zviwWuJC1m9LHng3V5oT-32" edge="1">
          <mxGeometry width="50" height="50" relative="1" as="geometry">
            <mxPoint x="180" y="827" as="sourcePoint" />
            <mxPoint x="844" y="837" as="targetPoint" />
          </mxGeometry>
        </mxCell>
        <mxCell id="zviwWuJC1m9LHng3V5oT-34" value="gestion de categories" style="ellipse;whiteSpace=wrap;html=1;" parent="1" vertex="1">
          <mxGeometry x="420" y="780" width="120" height="80" as="geometry" />
        </mxCell>
        <mxCell id="zviwWuJC1m9LHng3V5oT-35" value="" style="endArrow=none;html=1;rounded=0;exitX=0.5;exitY=0.5;exitDx=0;exitDy=0;exitPerimeter=0;entryX=0;entryY=0.5;entryDx=0;entryDy=0;" parent="1" source="zviwWuJC1m9LHng3V5oT-22" target="zviwWuJC1m9LHng3V5oT-34" edge="1">
          <mxGeometry width="50" height="50" relative="1" as="geometry">
            <mxPoint x="180" y="820" as="sourcePoint" />
            <mxPoint x="866" y="952" as="targetPoint" />
          </mxGeometry>
        </mxCell>
        <mxCell id="zviwWuJC1m9LHng3V5oT-36" value="gestion de tags" style="ellipse;whiteSpace=wrap;html=1;" parent="1" vertex="1">
          <mxGeometry x="420" y="875" width="120" height="80" as="geometry" />
        </mxCell>
        <mxCell id="zviwWuJC1m9LHng3V5oT-37" value="" style="endArrow=none;html=1;rounded=0;exitX=0.5;exitY=0.5;exitDx=0;exitDy=0;exitPerimeter=0;entryX=0;entryY=0.5;entryDx=0;entryDy=0;" parent="1" source="zviwWuJC1m9LHng3V5oT-22" target="zviwWuJC1m9LHng3V5oT-36" edge="1">
          <mxGeometry width="50" height="50" relative="1" as="geometry">
            <mxPoint x="158" y="800" as="sourcePoint" />
            <mxPoint x="866" y="1047" as="targetPoint" />
          </mxGeometry>
        </mxCell>
        <mxCell id="zviwWuJC1m9LHng3V5oT-38" value="" style="endArrow=classic;html=1;rounded=0;exitX=1;exitY=0.5;exitDx=0;exitDy=0;entryX=0;entryY=0.5;entryDx=0;entryDy=0;dashed=1;" parent="1" source="zviwWuJC1m9LHng3V5oT-30" target="zviwWuJC1m9LHng3V5oT-25" edge="1">
          <mxGeometry width="50" height="50" relative="1" as="geometry">
            <mxPoint x="432" y="263" as="sourcePoint" />
            <mxPoint x="678" y="492" as="targetPoint" />
          </mxGeometry>
        </mxCell>
        <mxCell id="zviwWuJC1m9LHng3V5oT-39" value="&amp;lt;&amp;lt;include&amp;gt;&amp;gt;" style="edgeLabel;html=1;align=center;verticalAlign=middle;resizable=0;points=[];" parent="zviwWuJC1m9LHng3V5oT-38" vertex="1" connectable="0">
          <mxGeometry x="0.1246" y="-1" relative="1" as="geometry">
            <mxPoint as="offset" />
          </mxGeometry>
        </mxCell>
        <mxCell id="zviwWuJC1m9LHng3V5oT-40" value="" style="endArrow=classic;html=1;rounded=0;exitX=1;exitY=0.5;exitDx=0;exitDy=0;entryX=0;entryY=1;entryDx=0;entryDy=0;dashed=1;" parent="1" source="zviwWuJC1m9LHng3V5oT-32" target="zviwWuJC1m9LHng3V5oT-25" edge="1">
          <mxGeometry width="50" height="50" relative="1" as="geometry">
            <mxPoint x="442" y="360" as="sourcePoint" />
            <mxPoint x="688" y="589" as="targetPoint" />
          </mxGeometry>
        </mxCell>
        <mxCell id="zviwWuJC1m9LHng3V5oT-41" value="&amp;lt;&amp;lt;include&amp;gt;&amp;gt;" style="edgeLabel;html=1;align=center;verticalAlign=middle;resizable=0;points=[];" parent="zviwWuJC1m9LHng3V5oT-40" vertex="1" connectable="0">
          <mxGeometry x="0.1246" y="-1" relative="1" as="geometry">
            <mxPoint as="offset" />
          </mxGeometry>
        </mxCell>
        <mxCell id="zviwWuJC1m9LHng3V5oT-42" value="" style="endArrow=classic;html=1;rounded=0;exitX=1;exitY=0.5;exitDx=0;exitDy=0;entryX=0;entryY=1;entryDx=0;entryDy=0;dashed=1;" parent="1" source="zviwWuJC1m9LHng3V5oT-34" target="zviwWuJC1m9LHng3V5oT-25" edge="1">
          <mxGeometry width="50" height="50" relative="1" as="geometry">
            <mxPoint x="470" y="414" as="sourcePoint" />
            <mxPoint x="716" y="643" as="targetPoint" />
          </mxGeometry>
        </mxCell>
        <mxCell id="zviwWuJC1m9LHng3V5oT-43" value="&amp;lt;&amp;lt;include&amp;gt;&amp;gt;" style="edgeLabel;html=1;align=center;verticalAlign=middle;resizable=0;points=[];" parent="zviwWuJC1m9LHng3V5oT-42" vertex="1" connectable="0">
          <mxGeometry x="0.1246" y="-1" relative="1" as="geometry">
            <mxPoint as="offset" />
          </mxGeometry>
        </mxCell>
        <mxCell id="zviwWuJC1m9LHng3V5oT-44" value="" style="endArrow=classic;html=1;rounded=0;exitX=1;exitY=0.5;exitDx=0;exitDy=0;entryX=0.5;entryY=1;entryDx=0;entryDy=0;dashed=1;" parent="1" source="zviwWuJC1m9LHng3V5oT-36" target="zviwWuJC1m9LHng3V5oT-25" edge="1">
          <mxGeometry width="50" height="50" relative="1" as="geometry">
            <mxPoint x="590" y="600" as="sourcePoint" />
            <mxPoint x="836" y="829" as="targetPoint" />
          </mxGeometry>
        </mxCell>
        <mxCell id="zviwWuJC1m9LHng3V5oT-45" value="&amp;lt;&amp;lt;include&amp;gt;&amp;gt;" style="edgeLabel;html=1;align=center;verticalAlign=middle;resizable=0;points=[];" parent="zviwWuJC1m9LHng3V5oT-44" vertex="1" connectable="0">
          <mxGeometry x="0.1246" y="-1" relative="1" as="geometry">
            <mxPoint as="offset" />
          </mxGeometry>
        </mxCell>
        <mxCell id="zviwWuJC1m9LHng3V5oT-46" value="&lt;font style=&quot;font-size: 36px;&quot;&gt;Wiki&lt;/font&gt;" style="text;html=1;strokeColor=none;fillColor=none;align=center;verticalAlign=middle;whiteSpace=wrap;rounded=0;" parent="1" vertex="1">
          <mxGeometry x="645" y="-20" width="60" height="30" as="geometry" />
        </mxCell>
        <mxCell id="zviwWuJC1m9LHng3V5oT-47" value="" style="endArrow=classic;html=1;rounded=0;exitX=0.5;exitY=0;exitDx=0;exitDy=0;exitPerimeter=0;entryX=0.5;entryY=0.5;entryDx=0;entryDy=0;entryPerimeter=0;" parent="1" source="zviwWuJC1m9LHng3V5oT-22" target="zviwWuJC1m9LHng3V5oT-2" edge="1">
          <mxGeometry width="50" height="50" relative="1" as="geometry">
            <mxPoint x="980" y="560" as="sourcePoint" />
            <mxPoint x="1030" y="510" as="targetPoint" />
          </mxGeometry>
        </mxCell>
      </root>
    </mxGraphModel>
  </diagram>
</mxfile>
